#N canvas 501 375 444 556 12;
#X obj 127 188 bng 30 250 50 0 empty empty empty 0 -10 0 12 #c6feff #000000 #000000;
#X obj 110 123 tgl 60 0 empty empty empty 0 -10 0 12 #e3c6ff #000000 #000000 0 1;
#X msg 184 382 press \$1;
#X obj 293 241 \$1;
#X obj 310 201 bng 19 250 50 0 empty empty empty 0 -10 0 12 #fcfcfc #000000 #000000;
#X obj 183 346 f;
#X obj 299 162 loadbang;
#X obj 90 344 f;
#X msg 93 386 release \$1;
#X obj 267 349 f;
#X msg 270 380 longpress \$1;
#X obj 91 259 sel 0;
#X obj 181 260 sel 1;
#X obj 184 291 bng 19 250 50 0 empty empty empty 0 -10 0 12 #fcfcfc #000000 #000000;
#X obj 91 293 bng 19 250 50 0 empty empty empty 0 -10 0 12 #fcfcfc #000000 #000000;
#X obj 170 468 s tbd_step;
#X connect 0 0 9 0;
#X connect 1 0 11 0;
#X connect 1 0 12 0;
#X connect 2 0 15 0;
#X connect 3 0 5 1;
#X connect 3 0 7 1;
#X connect 3 0 9 1;
#X connect 4 0 3 0;
#X connect 5 0 2 0;
#X connect 6 0 3 0;
#X connect 7 0 8 0;
#X connect 8 0 15 0;
#X connect 9 0 10 0;
#X connect 10 0 15 0;
#X connect 11 0 14 0;
#X connect 12 0 13 0;
#X connect 13 0 5 0;
#X connect 14 0 7 0;
#X coords 0 -1 1 1 80 120 1 100 100;
