#N canvas 861 96 358 652 12;
#X obj 111 123 hsl 60 40 -100 100 0 0 empty empty empty -2 -10 0 12 #feffc6 #000000 #000000 0 1;
#X obj 127 188 bng 30 250 50 0 empty empty empty 0 -10 0 12 #c6feff #000000 #000000;
#X obj 18 307 t b b b f;
#X obj 41 12 loadbang;
#X msg 42 67 0;
#X obj 262 178 delay 20;
#X obj 80 363 f;
#X msg 252 374 press \$1;
#X obj 259 297 \$1;
#X obj 271 261 bng 19 250 50 0 empty empty empty 0 -10 0 12 #fcfcfc #000000 #000000;
#X obj 249 343 f;
#X obj 260 222 loadbang;
#X msg 24 470 turn \$1 \$2;
#X obj 32 425 pack f f;
#X obj 32 362 f;
#X obj 18 278 int;
#X obj 17 247 sel 0;
#X obj 164 288 delay 30;
#X obj 200 347 f;
#X msg 253 431 release \$1;
#X obj 154 528 s tbd_mode;
#X obj 33 532 s tbd_knob;
#X connect 0 0 16 0;
#X connect 1 0 10 0;
#X connect 1 0 17 0;
#X connect 2 0 14 0;
#X connect 2 0 5 0;
#X connect 2 1 6 0;
#X connect 2 3 6 1;
#X connect 3 0 4 0;
#X connect 4 0 0 0;
#X connect 5 0 4 0;
#X connect 6 0 13 1;
#X connect 7 0 20 0;
#X connect 8 0 10 1;
#X connect 8 0 14 1;
#X connect 8 0 18 1;
#X connect 9 0 8 0;
#X connect 10 0 7 0;
#X connect 11 0 8 0;
#X connect 12 0 21 0;
#X connect 13 0 12 0;
#X connect 14 0 13 0;
#X connect 15 0 2 0;
#X connect 16 1 15 0;
#X connect 17 0 18 0;
#X connect 18 0 19 0;
#X connect 19 0 20 0;
#X coords 0 -1 1 1 80 120 1 100 100;
