#N canvas 1231 104 1016 513 12;
#X obj 82 40 simknob 0;
#X obj 176 40 simknob 1;
#X obj 265 40 simknob 2;
#X obj 354 40 simknob 3;
#X obj 35 190 simbut 0;
#X obj 130 190 simbut 1;
#X obj 215 190 simbut 2;
#X obj 309 190 simbut 3;
#X obj 402 190 simbut 4;
#X obj 494 190 simbut 5;
#X obj 588 190 simbut 6;
#X obj 686 190 simbut 7;
#X obj 35 319 simbut 8;
#X obj 130 319 simbut 9;
#X obj 215 319 simbut 10;
#X obj 309 319 simbut 11;
#X obj 402 319 simbut 12;
#X obj 494 319 simbut 13;
#X obj 588 319 simbut 14;
#X obj 686 319 simbut 15;
#X obj 860 25 r tbd_step;
#X obj 860 56 print tbd_step;
#X obj 859 117 r tbd_mode;
#X obj 858 147 print tbd_mode;
#X obj 858 206 r tbd_knob;
#X obj 856 235 print tbd_knob;
#X obj 861 307 r tbd_nav;
#X obj 863 338 print tbd_nav;
#X obj 839 395 r tbd_led;
#X obj 857 436 print tbd_led;
#X connect 20 0 21 0;
#X connect 22 0 23 0;
#X connect 24 0 25 0;
#X connect 26 0 27 0;
#X connect 28 0 29 0;
