#N canvas 619 161 967 1019 12;
#N canvas 324 362 450 278 (subpatch) 0;
#X array note 32 float 3;
#A 0 49 47.979 79 80 45 57 9.98214 43.445 76.2008 58.9658 47 37.1953 3.63241 11.7963 23.5887 35.3811 56.2445 60.78 88.9002 99.7855 109.764 44.313 35.3811 48.9876 56.2445 70.7581 81.6434 -0.903114 14.5177 21.7745 29.0313 41.7308;
#X coords 0 127 32 0 200 100 1 0 0;
#X restore 18 24 graph;
#X obj 84 338 f;
#X obj 128 338 + 1;
#X floatatom 26 374 5 0 0 0 - - - 0;
#X floatatom 26 426 5 0 0 0 - - - 0;
#X obj 28 199 bng 19 250 50 0 empty empty empty 0 -10 0 12 #fcfcfc #000000 #000000;
#X obj 27 161 loadbang;
#X msg 31 284 0;
#X obj 84 304 bng 19 250 50 0 empty empty empty 0 -10 0 12 #fcfcfc #000000 #000000;
#X obj 82 252 tgl 19 0 empty empty empty 0 -10 0 12 #fcfcfc #000000 #000000 0 1;
#X floatatom 28 544 5 0 0 0 - - - 0;
#X obj 83 279 metro 250;
#X obj 288 181 loadbang;
#N canvas 324 362 450 278 (subpatch) 0;
#X array trigchance 32 float 3;
#A 0 101 86 70 56 39 5 0 1 0 -1 -2 -1 -1 -1 -2 6 17 27 35 47 59 73 90 96 -4 -4 -4 -4 -4 -4 -4 -4;
#X coords 0 100 32 0 200 100 1 0 0;
#X restore 230 26 graph;
#X floatatom 224 538 5 0 0 0 - - - 0;
#X obj 227 504 tabread trigchance;
#X obj 26 509 tabread note;
#X obj 438 179 route turn;
#X obj 683 198 route press;
#X msg 82 227 1;
#X floatatom 683 239 5 0 0 0 - - - 0;
#X text 687 260 selected step;
#X obj 438 332 t b b f;
#X obj 605 334 t b b f;
#X obj 441 436 tabread note;
#X obj 442 678 tabwrite note;
#X obj 492 403 f;
#X floatatom 440 464 5 0 0 0 - - - 0;
#X floatatom 445 567 5 0 0 0 - - - 0;
#X obj 445 537 +;
#X obj 491 373 bng 19 250 50 0 empty empty empty 0 -10 0 12 #fcfcfc #000000 #000000;
#X floatatom 436 373 5 0 0 0 - - - 0;
#X floatatom 606 369 5 0 0 0 - - - 0;
#X obj 443 648 int;
#X obj 657 402 f;
#X floatatom 607 464 5 0 0 0 - - - 0;
#X floatatom 612 567 5 0 0 0 - - - 0;
#X obj 612 537 +;
#X obj 658 373 bng 19 250 50 0 empty empty empty 0 -10 0 12 #fcfcfc #000000 #000000;
#X obj 612 593 max 0;
#X obj 612 620 min 100;
#X obj 610 648 int;
#X obj 608 436 tabread trigchance;
#X obj 612 676 tabwrite trigchance;
#X obj 445 620 min 80;
#X obj 445 593 max 12;
#X obj 38 799 f;
#X obj 26 454 t b b b b b b b f;
#X obj 39 833 noteout;
#X obj 290 211 bng 19 250 50 0 empty empty empty 0 -10 0 12 #fcfcfc #000000 #000000;
#X floatatom 114 189 5 0 0 0 - tempo set-tempo 0;
#X obj 831 340 t b b f;
#X floatatom 832 375 5 0 0 0 - - - 0;
#X floatatom 840 550 5 0 0 0 - - - 0;
#X obj 840 520 +;
#X obj 885 376 bng 19 250 50 0 empty empty empty 0 -10 0 12 #fcfcfc #000000 #000000;
#X obj 838 631 int;
#X obj 857 420 r tempo;
#X text 111 168 beat interval;
#X obj 838 457 f;
#X obj 840 576 max 32;
#X obj 840 603 min 1000;
#X obj 151 250 r set-tempo;
#X obj 236 948 f;
#X obj 237 979 noteout;
#X obj 78 761 t b b b b;
#X obj 237 916 t b b b b;
#X msg 272 947 0;
#X msg 79 799 100;
#X msg 124 799 1;
#X msg 313 947 1;
#X obj 80 703 bng 19 250 50 0 empty empty empty 0 -10 0 12 #fcfcfc #000000 #000000;
#X obj 41 762 f;
#X obj 78 727 t b b b;
#X obj 171 596 random 100;
#X obj 155 636 moses;
#X obj 146 563 t b b b f;
#X obj 144 589 bng 19 250 50 0 empty empty empty 0 -10 0 12 #fcfcfc #000000 #000000;
#X floatatom 208 637 5 0 0 0 - - - 0;
#X obj 238 890 delay 25;
#X obj 744 239 print got_step_press;
#X obj 519 203 print got_turn;
#X obj 169 286 print set_tempo;
#X obj 293 332 print got_loadbang;
#X obj 99 836 print trigger_note;
#X obj 773 197 print got_tbd-step;
#X obj 518 178 print got_tbd-knob;
#X obj 270 540 print got_probability;
#X obj 254 636 print got_percent;
#X obj 164 454 print trigger_step;
#X obj 209 672 t f f f f;
#X msg 414 748 all-off;
#X msg 482 748 all-rgb 50 30 10;
#X floatatom 652 751 5 0 0 0 - - - 0;
#X obj 612 749 f;
#X obj 26 400 % 16;
#X msg 613 780 rgb \$1 0 255 255;
#X obj 498 820 print send_led;
#X obj 682 160 r tbd_step;
#X obj 438 143 r tbd_knob;
#X obj 615 819 s tbd_stepled @hv_param;
#X obj 791 286 print got_unhandled_index;
#X obj 457 309 print got_route_0;
#X obj 598 302 print got_route_1;
#X obj 752 311 print got_route_2;
#X obj 363 212 delay 10;
#X obj 312 276 s set-tempo;
#X obj 841 681 s set-tempo;
#X obj 354 305 s tempo;
#X msg 324 243 500;
#X obj 857 485 / 30;
#X obj 631 502 / 30;
#X obj 464 502 / 30;
#X obj 435 230 route 0 1 2;
#X obj 817 713 s tempo;
#X connect 1 0 3 0;
#X connect 1 0 2 0;
#X connect 2 0 1 1;
#X connect 3 0 95 0;
#X connect 4 0 47 0;
#X connect 4 0 94 1;
#X connect 5 0 7 0;
#X connect 5 0 19 0;
#X connect 6 0 5 0;
#X connect 7 0 1 0;
#X connect 8 0 1 0;
#X connect 9 0 11 0;
#X connect 10 0 72 1;
#X connect 11 0 8 0;
#X connect 12 0 49 0;
#X connect 15 0 14 0;
#X connect 15 0 76 0;
#X connect 16 0 10 0;
#X connect 17 0 81 0;
#X connect 17 0 113 0;
#X connect 18 0 20 0;
#X connect 18 0 80 0;
#X connect 19 0 9 0;
#X connect 20 0 26 1;
#X connect 20 0 34 1;
#X connect 22 0 30 0;
#X connect 22 2 31 0;
#X connect 23 0 38 0;
#X connect 23 2 32 0;
#X connect 24 0 27 0;
#X connect 26 0 24 0;
#X connect 26 0 25 1;
#X connect 27 0 29 0;
#X connect 28 0 45 0;
#X connect 29 0 28 0;
#X connect 30 0 26 0;
#X connect 31 0 112 0;
#X connect 32 0 111 0;
#X connect 33 0 25 0;
#X connect 34 0 42 0;
#X connect 34 0 43 1;
#X connect 35 0 37 0;
#X connect 36 0 39 0;
#X connect 37 0 36 0;
#X connect 38 0 34 0;
#X connect 39 0 40 0;
#X connect 40 0 41 0;
#X connect 41 0 43 0;
#X connect 42 0 35 0;
#X connect 44 0 33 0;
#X connect 45 0 44 0;
#X connect 46 0 48 0;
#X connect 47 1 94 0;
#X connect 47 2 92 0;
#X connect 47 3 91 0;
#X connect 47 7 15 0;
#X connect 47 7 16 0;
#X connect 49 0 83 0;
#X connect 49 0 105 0;
#X connect 51 0 55 0;
#X connect 51 2 52 0;
#X connect 52 0 110 0;
#X connect 53 0 60 0;
#X connect 54 0 53 0;
#X connect 55 0 59 0;
#X connect 56 0 107 0;
#X connect 56 0 114 0;
#X connect 57 0 59 1;
#X connect 59 0 54 0;
#X connect 60 0 61 0;
#X connect 61 0 56 0;
#X connect 62 0 11 1;
#X connect 62 0 82 0;
#X connect 63 0 64 0;
#X connect 65 0 79 0;
#X connect 65 1 46 0;
#X connect 65 2 68 0;
#X connect 65 3 69 0;
#X connect 66 1 63 0;
#X connect 66 2 67 0;
#X connect 66 3 70 0;
#X connect 67 0 64 1;
#X connect 68 0 48 1;
#X connect 69 0 48 2;
#X connect 70 0 64 2;
#X connect 71 0 73 0;
#X connect 72 0 46 1;
#X connect 72 0 63 1;
#X connect 72 0 84 0;
#X connect 73 0 65 0;
#X connect 73 2 72 0;
#X connect 74 0 75 0;
#X connect 74 0 78 0;
#X connect 75 0 90 0;
#X connect 76 1 77 0;
#X connect 76 2 74 0;
#X connect 76 3 75 1;
#X connect 79 0 66 0;
#X connect 90 0 71 0;
#X connect 91 0 100 0;
#X connect 92 0 100 0;
#X connect 93 0 96 0;
#X connect 94 0 96 0;
#X connect 95 0 4 0;
#X connect 96 0 100 0;
#X connect 98 0 18 0;
#X connect 98 0 85 0;
#X connect 99 0 17 0;
#X connect 99 0 86 0;
#X connect 105 0 109 0;
#X connect 109 0 106 0;
#X connect 109 0 108 0;
#X connect 110 0 54 1;
#X connect 111 0 37 1;
#X connect 112 0 29 1;
#X connect 113 0 22 0;
#X connect 113 0 102 0;
#X connect 113 1 23 0;
#X connect 113 1 103 0;
#X connect 113 2 51 0;
#X connect 113 2 104 0;
#X connect 113 3 101 0;
